<svg width="166" height="52" viewBox="0 0 166 52" fill="none" xmlns="http://www.w3.org/2000/svg">
<path fill-rule="evenodd" clip-rule="evenodd" d="M23 0L0 12.6487V39.3513L23.0001 52L46 39.3513V12.6487L23 0Z" fill="#4762FF"/>
<path fill-rule="evenodd" clip-rule="evenodd" d="M46 33.027H0V12.6487L23 0L46 12.6487V33.027Z" transform="translate(0 3.51352)" fill="#C6CFFF"/>
<path fill-rule="evenodd" clip-rule="evenodd" d="M23 12.6487L0 0V26.7027L23 39.3513L45.9999 26.7027V0L23 12.6487Z" transform="translate(0.00012207 12.6487)" fill="#4762FF"/>
<path fill-rule="evenodd" clip-rule="evenodd" d="M20.212 11.0585L0 0V20.1936L20.2122 31.0391V31.0368L40.4242 20.0962V0.117889L20.212 11.0585Z" transform="translate(43.2122 17.401) scale(-1 1)" fill="white"/>
<path d="M0 0L13.9394 7.72973V10.8919L0 3.24024V0Z" transform="translate(6.27307 31.6216)" fill="#4762FF"/>
<path d="M0 0L13.9394 7.72974V10.8919L0 3.24024V0Z" transform="translate(6.27295 23.8919)" fill="#4762FF"/>
<path d="M0 0L13.9394 7.58919V10.6939L0 3.18133V0Z" transform="translate(39.7272 31.6216) scale(-1 1)" fill="#4762FF"/>
<path d="M0 0L13.9394 7.5892V10.6939L0 3.18133V0Z" transform="translate(39.7272 23.8919) scale(-1 1)" fill="#4762FF"/>
<path d="M2.294 35V13.92H15.934V17.64H6.572V22.569H14.074V26.227H6.572V31.28H15.934V35H2.294ZM17.568 17.702V13.92H33.068V17.702H27.488V35H23.21V17.702H17.568ZM47.8974 35V26.258H40.0544V35H35.7764V13.92H40.0544V22.538H47.8974V13.92H52.1754V35H47.8974ZM63.8549 35H56.7559V13.92H63.8549C65.6736 13.92 67.1719 14.1163 68.3499 14.509C69.5279 14.881 70.4372 15.5113 71.0779 16.4C71.7392 17.268 72.1939 18.3013 72.4419 19.5C72.6899 20.678 72.8139 22.2177 72.8139 24.119C72.8139 26.0203 72.7002 27.6013 72.4729 28.862C72.2456 30.102 71.8116 31.218 71.1709 32.21C70.5509 33.1813 69.6416 33.8943 68.4429 34.349C67.2442 34.783 65.7149 35 63.8549 35ZM68.3499 26.63C68.3912 25.9687 68.4119 25.0593 68.4119 23.902C68.4119 22.724 68.3706 21.7837 68.2879 21.081C68.2052 20.3783 68.0089 19.7377 67.6989 19.159C67.3889 18.5803 66.9239 18.1877 66.3039 17.981C65.7046 17.7537 64.8882 17.64 63.8549 17.64H61.0339V31.28H63.8549C65.4049 31.28 66.5312 30.8873 67.2339 30.102C67.8332 29.4613 68.2052 28.304 68.3499 26.63ZM80.8955 30.04C81.5155 31.1147 82.6625 31.652 84.3365 31.652C86.0105 31.652 87.1471 31.1147 87.7465 30.04C88.3665 28.9447 88.6765 27.126 88.6765 24.584C88.6765 22.0213 88.3665 20.1613 87.7465 19.004C87.1265 17.8467 85.9898 17.268 84.3365 17.268C82.6831 17.268 81.5465 17.8467 80.9265 19.004C80.3065 20.1613 79.9965 22.0213 79.9965 24.584C79.9965 27.126 80.2961 28.9447 80.8955 30.04ZM91.0945 32.768C89.7925 34.504 87.5398 35.372 84.3365 35.372C81.1331 35.372 78.8701 34.504 77.5475 32.768C76.2455 31.0113 75.5945 28.273 75.5945 24.553C75.5945 20.833 76.2455 18.074 77.5475 16.276C78.8701 14.4573 81.1331 13.548 84.3365 13.548C87.5398 13.548 89.7925 14.4573 91.0945 16.276C92.4171 18.074 93.0785 20.833 93.0785 24.553C93.0785 28.273 92.4171 31.0113 91.0945 32.768ZM110.108 34.659C107.917 35.1343 105.944 35.372 104.187 35.372C102.43 35.372 101.025 35.155 99.9711 34.721C98.9171 34.287 98.0905 33.5947 97.4911 32.644C96.8918 31.6933 96.4785 30.5773 96.2511 29.296C96.0238 28.0147 95.9101 26.4027 95.9101 24.46C95.9101 20.3887 96.4785 17.5573 97.6151 15.966C98.7725 14.354 100.891 13.548 103.97 13.548C105.747 13.548 107.804 13.827 110.139 14.385L110.015 17.795C107.969 17.485 106.264 17.33 104.9 17.33C103.557 17.33 102.596 17.516 102.017 17.888C101.438 18.2393 101.004 18.9213 100.715 19.934C100.446 20.9467 100.312 22.6723 100.312 25.111C100.312 27.5497 100.591 29.2443 101.149 30.195C101.728 31.125 102.864 31.59 104.559 31.59C106.274 31.59 108.093 31.4453 110.015 31.156L110.108 34.659Z" transform="translate(54 2)" fill="#4762FF"/>
</svg>
