<svg width="600" height="431" viewBox="0 0 600 431" fill="none" xmlns="http://www.w3.org/2000/svg">
<rect width="600" height="373" fill="#DCE2FF"/>
<rect width="600" height="373" fill="white"/>
<circle cx="6.5" cy="6.5" r="6.5" transform="translate(14 15)" fill="#FF7575"/>
<circle cx="6.5" cy="6.5" r="6.5" transform="translate(34 15)" fill="#FFD875"/>
<circle cx="6.5" cy="6.5" r="6.5" transform="translate(54 15)" fill="#88FF9B"/>
<path d="M8.03223 4.12695H4.83301V13H3.52734V4.12695H0.334961V3.04688H8.03223V4.12695ZM11.6963 13.1367C10.6937 13.1367 9.87793 12.8086 9.24902 12.1523C8.62012 11.4915 8.30566 10.6097 8.30566 9.50684V9.27441C8.30566 8.54069 8.44466 7.88672 8.72266 7.3125C9.00521 6.73372 9.39714 6.28255 9.89844 5.95898C10.4043 5.63086 10.9512 5.4668 11.5391 5.4668C12.5007 5.4668 13.248 5.78353 13.7812 6.41699C14.3145 7.05046 14.5811 7.95736 14.5811 9.1377V9.66406H9.57031C9.58854 10.3932 9.80046 10.9834 10.2061 11.4346C10.6162 11.8812 11.1357 12.1045 11.7646 12.1045C12.2113 12.1045 12.5895 12.0133 12.8994 11.8311C13.2093 11.6488 13.4805 11.4072 13.7129 11.1064L14.4854 11.708C13.8656 12.6605 12.9359 13.1367 11.6963 13.1367ZM11.5391 6.50586C11.0286 6.50586 10.6003 6.69271 10.2539 7.06641C9.90755 7.43555 9.69336 7.95508 9.61133 8.625H13.3164V8.5293C13.2799 7.88672 13.1068 7.38997 12.7969 7.03906C12.487 6.68359 12.0677 6.50586 11.5391 6.50586ZM19.626 6.73828C19.4346 6.70638 19.2272 6.69043 19.0039 6.69043C18.1745 6.69043 17.6117 7.04362 17.3154 7.75V13H16.0508V5.60352H17.2812L17.3018 6.45801C17.7165 5.7972 18.3044 5.4668 19.0654 5.4668C19.3115 5.4668 19.4984 5.4987 19.626 5.5625V6.73828ZM21.9844 5.60352L22.0186 6.42383C22.5609 5.78581 23.2923 5.4668 24.2129 5.4668C25.2474 5.4668 25.9515 5.86328 26.3252 6.65625C26.5713 6.30078 26.8903 6.01367 27.2822 5.79492C27.6787 5.57617 28.1458 5.4668 28.6836 5.4668C30.306 5.4668 31.1309 6.32585 31.1582 8.04395V13H29.8936V8.11914C29.8936 7.59049 29.7728 7.19629 29.5312 6.93652C29.2897 6.6722 28.8841 6.54004 28.3145 6.54004C27.8451 6.54004 27.4554 6.68132 27.1455 6.96387C26.8356 7.24186 26.6556 7.61784 26.6055 8.0918V13H25.334V8.15332C25.334 7.0778 24.8076 6.54004 23.7549 6.54004C22.9255 6.54004 22.3581 6.89323 22.0527 7.59961V13H20.7881V5.60352H21.9844ZM34.4463 13H33.1816V5.60352H34.4463V13ZM33.0791 3.6416C33.0791 3.43652 33.1406 3.26335 33.2637 3.12207C33.3913 2.98079 33.5781 2.91016 33.8242 2.91016C34.0703 2.91016 34.2572 2.98079 34.3848 3.12207C34.5124 3.26335 34.5762 3.43652 34.5762 3.6416C34.5762 3.84668 34.5124 4.01758 34.3848 4.1543C34.2572 4.29102 34.0703 4.35938 33.8242 4.35938C33.5781 4.35938 33.3913 4.29102 33.2637 4.1543C33.1406 4.01758 33.0791 3.84668 33.0791 3.6416ZM37.6729 5.60352L37.7139 6.5332C38.279 5.82227 39.0173 5.4668 39.9287 5.4668C41.4919 5.4668 42.2803 6.34863 42.2939 8.1123V13H41.0293V8.10547C41.0247 7.57227 40.9017 7.17806 40.6602 6.92285C40.4232 6.66764 40.0518 6.54004 39.5459 6.54004C39.1357 6.54004 38.7757 6.64941 38.4658 6.86816C38.1559 7.08691 37.9144 7.37402 37.7412 7.72949V13H36.4766V5.60352H37.6729ZM48.7676 13C48.6947 12.8542 48.6354 12.5944 48.5898 12.2207C48.002 12.8314 47.3001 13.1367 46.4844 13.1367C45.7552 13.1367 45.1559 12.9316 44.6865 12.5215C44.2217 12.1068 43.9893 11.5827 43.9893 10.9492C43.9893 10.179 44.2809 9.58203 44.8643 9.1582C45.4521 8.72982 46.277 8.51562 47.3389 8.51562H48.5693V7.93457C48.5693 7.49251 48.4372 7.1416 48.1729 6.88184C47.9085 6.61751 47.5189 6.48535 47.0039 6.48535C46.5527 6.48535 46.1745 6.59928 45.8691 6.82715C45.5638 7.05501 45.4111 7.33073 45.4111 7.6543H44.1396C44.1396 7.28516 44.2695 6.92969 44.5293 6.58789C44.7936 6.24154 45.1491 5.9681 45.5957 5.76758C46.0469 5.56706 46.5413 5.4668 47.0791 5.4668C47.9313 5.4668 48.599 5.68099 49.082 6.10938C49.5651 6.5332 49.8158 7.11882 49.834 7.86621V11.2705C49.834 11.9495 49.9206 12.4896 50.0938 12.8906V13H48.7676ZM46.6689 12.0361C47.0654 12.0361 47.4414 11.9336 47.7969 11.7285C48.1523 11.5234 48.4098 11.2568 48.5693 10.9287V9.41113H47.5781C46.0286 9.41113 45.2539 9.86458 45.2539 10.7715C45.2539 11.168 45.3861 11.4779 45.6504 11.7012C45.9147 11.9245 46.2542 12.0361 46.6689 12.0361ZM53.1904 13H51.9258V2.5H53.1904V13Z" transform="translate(273 13)" fill="white"/>
<rect width="327" height="23" transform="translate(145 10)" fill="#F7F7F7"/>
<path d="M4.532 11.318L4.851 11.285L4.873 11.934C4.037 12.0513 3.322 12.11 2.728 12.11C1.936 12.11 1.375 11.8827 1.045 11.428C0.715 10.966 0.55 10.251 0.55 9.283C0.55 7.35433 1.31633 6.39 2.849 6.39C3.58967 6.39 4.14333 6.599 4.51 7.017C4.87667 7.42767 5.06 8.07667 5.06 8.964L5.016 9.591H1.386C1.386 10.1997 1.496 10.6507 1.716 10.944C1.936 11.2373 2.31733 11.384 2.86 11.384C3.41 11.384 3.96733 11.362 4.532 11.318ZM4.235 8.931C4.235 8.25633 4.125 7.77967 3.905 7.501C3.69233 7.22233 3.34033 7.083 2.849 7.083C2.365 7.083 1.99833 7.22967 1.749 7.523C1.507 7.81633 1.38233 8.28567 1.375 8.931H4.235ZM9.16248 7.215H7.41348V9.844C7.41348 10.4747 7.45748 10.889 7.54548 11.087C7.64082 11.285 7.86082 11.384 8.20548 11.384L9.18448 11.318L9.23948 12C8.74815 12.0807 8.37415 12.121 8.11748 12.121C7.54548 12.121 7.14948 11.9817 6.92948 11.703C6.70948 11.4243 6.59948 10.8927 6.59948 10.108V7.215H5.81848V6.5H6.59948V4.817H7.41348V6.5H9.16248V7.215ZM10.9949 12H10.1699V4.102H10.9949V6.808C11.5816 6.52933 12.1463 6.39 12.6889 6.39C13.4223 6.39 13.9136 6.588 14.1629 6.984C14.4196 7.38 14.5479 8.084 14.5479 9.096V12H13.7229V9.118C13.7229 8.35533 13.6459 7.83467 13.4919 7.556C13.3453 7.27 13.0299 7.127 12.5459 7.127C12.0839 7.127 11.6366 7.21133 11.2039 7.38L10.9949 7.457V12ZM20.3021 4.102V12H19.4881V11.626C18.9235 11.9487 18.3661 12.11 17.8161 12.11C17.5228 12.11 17.2661 12.0733 17.0461 12C16.8261 11.9267 16.6208 11.7947 16.4301 11.604C16.0341 11.208 15.8361 10.4783 15.8361 9.415C15.8361 8.34433 16.0121 7.57433 16.3641 7.105C16.7235 6.62833 17.3138 6.39 18.1351 6.39C18.5605 6.39 19.0115 6.43767 19.4881 6.533V4.102H20.3021ZM17.0681 11.01C17.1855 11.1493 17.3101 11.2447 17.4421 11.296C17.5741 11.3473 17.7428 11.373 17.9481 11.373C18.1608 11.373 18.3955 11.34 18.6521 11.274C18.9161 11.2007 19.1215 11.131 19.2681 11.065L19.4881 10.966V7.237C19.0188 7.149 18.5825 7.105 18.1791 7.105C17.6218 7.105 17.2331 7.28467 17.0131 7.644C16.7931 7.996 16.6831 8.546 16.6831 9.294C16.6831 10.1447 16.8115 10.7167 17.0681 11.01ZM21.6584 9.239C21.6584 8.23433 21.8381 7.50833 22.1974 7.061C22.5567 6.61367 23.1617 6.39 24.0124 6.39C24.8704 6.39 25.4754 6.61367 25.8274 7.061C26.1867 7.50833 26.3664 8.23433 26.3664 9.239C26.3664 10.2437 26.1977 10.9733 25.8604 11.428C25.5231 11.8827 24.9071 12.11 24.0124 12.11C23.1177 12.11 22.5017 11.8827 22.1644 11.428C21.8271 10.9733 21.6584 10.2437 21.6584 9.239ZM22.5054 9.228C22.5054 10.0273 22.6007 10.5883 22.7914 10.911C22.9894 11.2337 23.3964 11.395 24.0124 11.395C24.6357 11.395 25.0427 11.2373 25.2334 10.922C25.4241 10.5993 25.5194 10.0347 25.5194 9.228C25.5194 8.42133 25.4131 7.86767 25.2004 7.567C24.9877 7.259 24.5917 7.105 24.0124 7.105C23.4404 7.105 23.0444 7.259 22.8244 7.567C22.6117 7.86767 22.5054 8.42133 22.5054 9.228ZM29.7689 6.39C30.0109 6.39 30.4216 6.434 31.0009 6.522L31.2649 6.555L31.2319 7.226C30.6453 7.16 30.2126 7.127 29.9339 7.127C29.3106 7.127 28.8853 7.27733 28.6579 7.578C28.4379 7.87133 28.3279 8.42133 28.3279 9.228C28.3279 10.0273 28.4306 10.5847 28.6359 10.9C28.8486 11.2153 29.2849 11.373 29.9449 11.373L31.2429 11.274L31.2759 11.956C30.5939 12.0587 30.0843 12.11 29.7469 12.11C28.8889 12.11 28.2949 11.89 27.9649 11.45C27.6423 11.01 27.4809 10.2693 27.4809 9.228C27.4809 8.17933 27.6569 7.446 28.0089 7.028C28.3609 6.60267 28.9476 6.39 29.7689 6.39ZM32.4479 12V10.746H33.3499V12H32.4479ZM34.877 12V6.5H35.702V12H34.877ZM34.877 5.257V4.3H35.702V5.257H34.877ZM37.0412 9.239C37.0412 8.23433 37.2209 7.50833 37.5802 7.061C37.9395 6.61367 38.5445 6.39 39.3952 6.39C40.2532 6.39 40.8582 6.61367 41.2102 7.061C41.5695 7.50833 41.7492 8.23433 41.7492 9.239C41.7492 10.2437 41.5805 10.9733 41.2432 11.428C40.9059 11.8827 40.2899 12.11 39.3952 12.11C38.5005 12.11 37.8845 11.8827 37.5472 11.428C37.2099 10.9733 37.0412 10.2437 37.0412 9.239ZM37.8882 9.228C37.8882 10.0273 37.9835 10.5883 38.1742 10.911C38.3722 11.2337 38.7792 11.395 39.3952 11.395C40.0185 11.395 40.4255 11.2373 40.6162 10.922C40.8069 10.5993 40.9022 10.0347 40.9022 9.228C40.9022 8.42133 40.7959 7.86767 40.5832 7.567C40.3705 7.259 39.9745 7.105 39.3952 7.105C38.8232 7.105 38.4272 7.259 38.2072 7.567C37.9945 7.86767 37.8882 8.42133 37.8882 9.228Z" transform="translate(287 13)" fill="#787878"/>
<rect width="600" height="384" transform="translate(0 47)" fill="#F5F5FB"/>
<rect width="90" height="12" transform="translate(16 77)" fill="#5A5A5A" fill-opacity="0.16"/>
<rect width="99" height="12" transform="translate(16 93)" fill="#5A5A5A" fill-opacity="0.16"/>
<rect width="78" height="12" transform="translate(16 109)" fill="#5A5A5A" fill-opacity="0.16"/>
<rect width="90" height="12" transform="translate(16 125)" fill="#5A5A5A" fill-opacity="0.16"/>
<rect width="99" height="12" transform="translate(16 141)" fill="#5A5A5A" fill-opacity="0.16"/>
<rect width="78" height="12" transform="translate(16 157)" fill="#5A5A5A" fill-opacity="0.16"/>
<rect width="90" height="12" transform="translate(16 173)" fill="#5A5A5A" fill-opacity="0.16"/>
<rect width="99" height="12" transform="translate(16 189)" fill="#5A5A5A" fill-opacity="0.16"/>
<rect width="78" height="12" transform="translate(16 205)" fill="#5A5A5A" fill-opacity="0.16"/>
<rect width="458" height="355" rx="6" transform="translate(135 69)" fill="white"/>
<rect width="432.212" height="282.762" rx="6" transform="translate(148.41 127.823)" fill="#221C48"/>
<path d="M0 0H431.5V69H0V0Z" transform="translate(148.5 293)" fill="black"/>
<rect width="64" height="24" rx="6" transform="translate(503 373)" fill="#4762FF"/>
<rect width="225.905" height="12.0056" transform="translate(166.977 147.123)" fill="#D2D9FF" fill-opacity="0.32"/>
<rect width="153.698" height="12.0056" transform="translate(166.977 167.132)" fill="#D2D9FF" fill-opacity="0.32"/>
<rect width="57.7658" height="12.0056" transform="translate(373.284 187.142)" fill="#D2D9FF" fill-opacity="0.32"/>
<rect width="153.698" height="12.0056" transform="translate(208.239 187.142)" fill="#75EEFF" fill-opacity="0.3"/>
<rect width="57.7658" height="12.0056" transform="translate(346.464 207.151)" fill="#D2D9FF" fill-opacity="0.32"/>
<rect width="126.878" height="12.0056" transform="translate(208.239 207.151)" fill="#5A5883"/>
<rect width="57.7658" height="12.0056" transform="translate(387.725 227.16)" fill="#D2D9FF" fill-opacity="0.32"/>
<rect width="126.878" height="12.0056" transform="translate(249.5 227.16)" fill="#5A5883"/>
<rect width="57.7658" height="12.0056" transform="translate(305.203 249.171)" fill="#81425B"/>
<rect width="126.878" height="12.0056" transform="translate(166.977 249.171)" fill="#3B5B7F"/>
<rect width="57.7658" height="12.0056" transform="translate(346.464 269.18)" fill="#D2D9FF" fill-opacity="0.32"/>
<rect width="126.878" height="12.0056" transform="translate(208.239 269.18)" fill="#6F5E58"/>
<rect width="51.5766" height="12.0056" transform="translate(330.991 167.132)" fill="#FFD875" fill-opacity="0.35"/>
<rect width="51.5766" height="12.0056" transform="translate(392.883 167.132)" fill="#FF7575" fill-opacity="0.43"/>
<rect width="225.905" height="12.0056" transform="translate(162.851 311.199)" fill="#9DFFD0" fill-opacity="0.86"/>
<rect width="153.698" height="12.0056" transform="translate(162.851 331.209)" fill="#9DFFD0" fill-opacity="0.86"/>
<rect width="51.5766" height="12.0056" transform="translate(326.865 331.209)" fill="#9DFFD0" fill-opacity="0.86"/>
<rect width="51.5766" height="12.0056" transform="translate(388.757 331.209)" fill="#9DFFD0" fill-opacity="0.86"/>
<rect width="156.793" height="25.0117" transform="translate(150.473 85.0941)" fill="#E7E7E7"/>
<rect width="156.793" height="25.0117" transform="translate(150.473 85.0941)" fill="#E7E7E7"/>
<path d="M1.458 7.615V10H0.765V3.772H3.069C3.729 3.772 4.224 3.925 4.554 4.231C4.89 4.537 5.058 5.014 5.058 5.662C5.058 6.622 4.677 7.225 3.915 7.471L5.112 10H4.347L3.222 7.615H1.458ZM3.078 7.003C3.924 7.003 4.347 6.568 4.347 5.698C4.347 4.822 3.921 4.384 3.069 4.384H1.458V7.003H3.078ZM6.9589 8.128C6.9589 9.028 7.4449 9.478 8.4169 9.478C8.9209 9.478 9.2989 9.373 9.5509 9.163C9.8089 8.947 9.9379 8.602 9.9379 8.128V3.772H10.6219V8.11C10.6219 8.806 10.4359 9.31 10.0639 9.622C9.6979 9.934 9.1549 10.09 8.4349 10.09C7.7149 10.09 7.1719 9.934 6.8059 9.622C6.4459 9.31 6.2659 8.806 6.2659 8.11V3.772H6.9589V8.128ZM12.1029 10V3.772H13.3989L15.7839 9.388H15.9729V3.772H16.6569V10H15.3879L12.9669 4.384H12.7959V10H12.1029ZM23.9245 9.901C23.3065 10.027 22.7515 10.09 22.2595 10.09C21.7675 10.09 21.3685 10.024 21.0625 9.892C20.7625 9.754 20.5285 9.544 20.3605 9.262C20.1985 8.974 20.0845 8.647 20.0185 8.281C19.9585 7.909 19.9285 7.447 19.9285 6.895C19.9285 6.343 19.9585 5.881 20.0185 5.509C20.0845 5.131 20.1985 4.798 20.3605 4.51C20.5285 4.222 20.7625 4.012 21.0625 3.88C21.3625 3.748 21.7525 3.682 22.2325 3.682C22.7125 3.682 23.2765 3.748 23.9245 3.88L23.8975 4.465C23.2915 4.357 22.7515 4.303 22.2775 4.303C21.6175 4.303 21.1795 4.501 20.9635 4.897C20.7535 5.287 20.6485 5.956 20.6485 6.904C20.6485 7.378 20.6665 7.759 20.7025 8.047C20.7445 8.335 20.8225 8.596 20.9365 8.83C21.0505 9.058 21.2155 9.223 21.4315 9.325C21.6535 9.421 21.9745 9.469 22.3945 9.469C22.8205 9.469 23.3215 9.415 23.8975 9.307L23.9245 9.901ZM25.4203 6.913C25.4203 7.825 25.5403 8.482 25.7803 8.884C26.0203 9.28 26.4823 9.478 27.1663 9.478C27.8563 9.478 28.3183 9.283 28.5523 8.893C28.7923 8.503 28.9123 7.849 28.9123 6.931C28.9123 6.013 28.7893 5.344 28.5433 4.924C28.2973 4.504 27.8353 4.294 27.1573 4.294C26.4853 4.294 26.0263 4.504 25.7803 4.924C25.5403 5.338 25.4203 6.001 25.4203 6.913ZM29.6323 6.931C29.6323 8.041 29.4553 8.845 29.1013 9.343C28.7473 9.841 28.1023 10.09 27.1663 10.09C26.2363 10.09 25.5943 9.835 25.2403 9.325C24.8863 8.815 24.7093 8.014 24.7093 6.922C24.7093 5.824 24.8893 5.011 25.2493 4.483C25.6093 3.949 26.2483 3.682 27.1663 3.682C28.0843 3.682 28.7233 3.946 29.0833 4.474C29.4493 5.002 29.6323 5.821 29.6323 6.931ZM33.1257 10H30.9027V3.772H33.1257C34.1397 3.772 34.8117 4.174 35.1417 4.978C35.3337 5.44 35.4297 6.046 35.4297 6.796C35.4297 8.362 35.0397 9.349 34.2597 9.757C33.9477 9.919 33.5697 10 33.1257 10ZM34.7187 6.796C34.7187 5.602 34.4517 4.858 33.9177 4.564C33.7017 4.444 33.4377 4.384 33.1257 4.384H31.5957V9.388H33.1257C34.1877 9.388 34.7187 8.524 34.7187 6.796ZM36.7035 10V3.772H40.4925V4.384H37.3965V6.535H39.9525V7.138H37.3965V9.388H40.4925V10H36.7035Z" transform="translate(514 378)" fill="white"/>
</svg>
