<svg width="67" height="75" viewBox="0 0 67 75" fill="none" xmlns="http://www.w3.org/2000/svg">
<path fill-rule="evenodd" clip-rule="evenodd" d="M0 18L33 0L66 18V49H0V18Z" transform="translate(0.317871)" fill="#8798FF"/>
<path fill-rule="evenodd" clip-rule="evenodd" d="M66 47H0V18L33 0L66 18V47Z" transform="translate(0.317871 5)" fill="#8798FF"/>
<path d="M0 0C11.2623 13.6222 23.6826 7.13671 33.0364 19.2633L33 57C25 44.8938 3.5 47.9204 0 37.8319V0Z" transform="translate(66.3179 18) scale(-1 1)" fill="#8798FF"/>
<path d="M0 0C11.2623 13.6222 23.6826 7.13671 33.0364 19.2633L33 57C25 44.8938 3.5 47.9204 0 37.8319V0Z" transform="translate(0.317871 18)" fill="#8798FF"/>
<path d="M28.8877 3.39306e-06C17.744 7.26608 6.24339 4.7395 0 15.9411V43.0194C7.99999 31.7794 22.8205 35.4869 29 27.3983L28.8877 3.39306e-06Z" transform="translate(33.3179 26.9806) scale(-1 1)" fill="white"/>
<path d="M29.8838 3.39306e-06C18.3558 7.26608 6.45868 4.7395 0 15.9411V43.0194C8.27585 31.7794 23.6075 35.4869 30 27.3983L29.8838 3.39306e-06Z" transform="translate(33.3179 26.9806)" fill="#DCE2FF"/>
<path d="M0 0C5.77318 4.00451 15.0807 3.19804 19.848 10.0149V14.8565C15.9555 7.90922 5.94414 8.44954 0 4.61111V0Z" transform="translate(8.59595 34.8041)" fill="#8798FF"/>
<path d="M0 0C5.77318 4.00451 15.0807 3.19804 19.848 10.0149V14.8565C15.9555 7.90922 5.94414 8.44954 0 4.61111V0Z" transform="translate(8.59595 46.3041)" fill="#8798FF"/>
<path d="M0 0C5.8093 4.02956 15.1751 3.21805 19.9722 10.0775V14.9494C16.0554 7.95871 5.98133 8.50241 0 4.63996V0Z" transform="translate(58.2097 34.7238) scale(-1 1)" fill="#8798FF"/>
<path d="M0 0C5.8093 4.02956 15.1751 3.21805 19.9722 10.0775V14.9494C16.0554 7.95871 5.98133 8.50241 0 4.63996V0Z" transform="translate(58.2097 46.2958) scale(-1 1)" fill="#8798FF"/>
</svg>
